Coordinates
version=1
nRows=6
nColumns=36
inDegrees=yes

Units are S.I. units (second, meters, Newtons, ...)
If the header above contains a line with 'inDegrees', this indicates whether rotational values are in degrees (yes) or radians (no).

endheader
time	pelvis_tilt	pelvis_list	pelvis_rotation	pelvis_tx	pelvis_ty	pelvis_tz	hip_flexion_r	hip_adduction_r	hip_rotation_r	knee_angle_r	knee_angle_r_beta	ankle_angle_r	subtalar_angle_r	mtp_angle_r	hip_flexion_l	hip_adduction_l	hip_rotation_l	knee_angle_l	knee_angle_l_beta	ankle_angle_l	subtalar_angle_l	mtp_angle_l	lumbar_extension	lumbar_bending	lumbar_rotation	arm_flex_r	arm_add_r	arm_rot_r	elbow_flex_r	pro_sup_r	arm_flex_l	arm_add_l	arm_rot_l	elbow_flex_l	pro_sup_l
      1.62000000	    -15.80012760	      2.87768132	     -7.81990540	     -0.34166395	      0.66230210	     -0.55574721	     80.45161375	      1.95598148	      9.44366078	     95.87387045	      1.67331471	     34.07599740	     -2.80533569	     -7.49970534	     82.16595240	    -10.72343686	      0.32265886	     94.52658887	      1.64980021	     25.64766085	    -15.24434348	     -7.49970534	    -27.95593261	     -2.11576880	     21.05483178	    179.82954493	   -161.52865958	    155.26879679	     91.72766770	    106.47762629	     22.92410748	     -3.23249507	     -5.29175110	     53.37734429	    102.65015555
      1.63000000	    -16.82797440	      3.38373096	     -7.56525481	     -0.34074033	      0.65340755	     -0.55671873	     82.68604344	      1.62346775	      9.76717595	     97.44186054	      1.70068130	     34.13432580	     -2.78221286	     -7.49971291	     84.12960313	    -10.42629608	      0.15018921	     95.79735459	      1.67197925	     25.94964734	    -15.14477705	     -7.49971291	    -27.86921008	     -3.05478310	     23.85886454	    179.86616146	   -160.34759147	    154.52577001	     96.05780670	    106.19608949	     29.37379294	      0.47251056	     -1.49319861	     51.51965574	    102.60764187
      1.64000000	    -17.96148051	      3.84067639	     -7.10770189	     -0.33983309	      0.64496925	     -0.55808413	     84.85786168	      1.15449952	     10.09631382	     98.83685235	      1.72502850	     34.37838560	     -2.76753465	     -7.49972220	     86.07814067	     -9.97226884	     -0.01639808	     96.84371016	      1.69024160	     26.30069049	    -15.02696475	     -7.49972220	    -27.67075089	     -3.91250765	     26.27974666	    179.88976229	   -158.57436702	    153.82132733	    100.34760464	    105.65335984	     35.26905691	      4.32919543	      2.18134976	     49.83761355	    102.48546576
      1.65000000	    -18.87349891	      4.15126087	     -6.51687274	     -0.33881632	      0.63785154	     -0.55979337	     86.50823064	      0.60221327	     10.44131495	     99.98219235	      1.74501845	     34.77094633	     -2.69019585	     -7.49972750	     87.67896602	     -9.48823795	     -0.21040509	     97.73016557	      1.70571317	     26.57770630	    -14.87060674	     -7.49972750	    -27.75719661	     -4.62660014	     28.53917595	    179.90417438	   -156.16566184	    152.61271850	    104.50873432	    105.29565265	     40.86604310	      8.68097777	      4.91810373	     48.08728712	    102.38545546
      1.66000000	    -19.56007322	      4.37288617	     -5.98104243	     -0.33761302	      0.63227949	     -0.56116828	     87.63089864	      0.24982434	     10.88603385	    100.86042203	      1.76034645	     35.47973455	     -2.50677162	     -7.49977382	     88.85549336	     -9.14935511	     -0.41069543	     98.42849736	      1.71790136	     27.24427192	    -14.19722919	     -7.49977382	    -28.07948345	     -5.33867210	     30.73912652	    179.91202218	   -152.96437682	    151.51162968	    108.62992686	    100.50146552	     46.34703830	     12.95025863	      8.21672336	     46.16722800	    100.96800372
      1.67000000	    -19.97983977	      4.45559791	     -5.47101360	     -0.33625479	      0.62825627	     -0.56213467	     88.27896717	      0.04316451	     11.23768954	    101.55340587	      1.77244130	     35.84954976	     -2.75875119	     -7.49977633	     89.63619224	     -8.84347357	     -0.51684413	     98.96110061	      1.72719704	     27.30628422	    -14.13017340	     -7.49977633	    -28.82539830	     -5.98809673	     32.70878538	    179.91593534	   -149.13632238	    149.86017107	    112.63575010	    100.48325795	     51.46129887	     17.41989869	      9.89545434	     44.87394997	    100.92673908
